<?xml version="1.0" encoding="UTF-8" standalone="no"?>
<svg
   xmlns:dc="http://purl.org/dc/elements/1.1/"
   xmlns:cc="http://creativecommons.org/ns#"
   xmlns:rdf="http://www.w3.org/1999/02/22-rdf-syntax-ns#"
   xmlns:svg="http://www.w3.org/2000/svg"
   xmlns="http://www.w3.org/2000/svg"
   xmlns:sodipodi="http://sodipodi.sourceforge.net/DTD/sodipodi-0.dtd"
   xmlns:inkscape="http://www.inkscape.org/namespaces/inkscape"
   inkscape:export-ydpi="300"
   inkscape:export-xdpi="300"
   inkscape:export-filename="/home/user/Desktop/rect10.png"
   sodipodi:docname="amian_wallpaper.svg"
   inkscape:version="1.0 (4035a4fb49, 2020-05-01)"
   id="svg8"
   version="1.1"
   viewBox="0 0 210 297"
   height="297mm"
   width="210mm">
  <defs
     id="defs2">
    <filter
       height="3.099411"
       y="-1.0497055"
       width="3.0874937"
       x="-1.0437469"
       id="filter5524"
       style="color-interpolation-filters:sRGB"
       inkscape:collect="always">
      <feGaussianBlur
         id="feGaussianBlur5526"
         stdDeviation="38.105735"
         inkscape:collect="always" />
    </filter>
    <filter
       height="2.4291743"
       y="-0.71458714"
       width="2.4210615"
       x="-0.71053075"
       id="filter5696"
       style="color-interpolation-filters:sRGB"
       inkscape:collect="always">
      <feGaussianBlur
         id="feGaussianBlur5698"
         stdDeviation="25.940482"
         inkscape:collect="always" />
    </filter>
    <filter
       height="2.5811445"
       y="-0.79057226"
       width="2.5721691"
       x="-0.78608453"
       id="filter5780"
       style="color-interpolation-filters:sRGB"
       inkscape:collect="always">
      <feGaussianBlur
         id="feGaussianBlur5782"
         stdDeviation="28.698845"
         inkscape:collect="always" />
    </filter>
  </defs>
  <sodipodi:namedview
     inkscape:window-maximized="1"
     inkscape:window-y="0"
     inkscape:window-x="0"
     inkscape:window-height="704"
     inkscape:window-width="1366"
     showborder="false"
     showgrid="false"
     inkscape:document-rotation="0"
     inkscape:current-layer="layer1"
     inkscape:document-units="mm"
     inkscape:cy="335.24692"
     inkscape:cx="213.19535"
     inkscape:zoom="0.1767767"
     inkscape:pageshadow="2"
     inkscape:pageopacity="0.0"
     borderopacity="1.0"
     bordercolor="#666666"
     pagecolor="#ffffff"
     id="base" />
  <metadata
     id="metadata5">
    <rdf:RDF>
      <cc:Work
         rdf:about="">
        <dc:format>image/svg+xml</dc:format>
        <dc:type
           rdf:resource="http://purl.org/dc/dcmitype/StillImage" />
        <dc:title></dc:title>
      </cc:Work>
    </rdf:RDF>
  </metadata>
  <g
     id="layer1"
     inkscape:groupmode="layer"
     inkscape:label="Layer 1">
    <rect
       inkscape:export-ydpi="300"
       inkscape:export-xdpi="300"
       y="21.133768"
       x="-171.90831"
       height="285.75"
       width="508"
       id="rect10"
       style="opacity:1;fill:#121243;fill-opacity:1;stroke:none;stroke-width:13.6344;stroke-linecap:square" />
    <text
       inkscape:export-ydpi="300"
       inkscape:export-xdpi="300"
       id="text855"
       y="287.6069"
       x="195.92119"
       style="font-style:normal;font-variant:normal;font-weight:normal;font-stretch:normal;font-size:35.7456px;line-height:1.25;font-family:'Keep Singing';-inkscape-font-specification:'Keep Singing';letter-spacing:0px;word-spacing:0px;fill:#ffffff;stroke-width:0.186175"
       xml:space="preserve"><tspan
         style="font-style:normal;font-variant:normal;font-weight:normal;font-stretch:normal;font-size:35.7456px;font-family:'Keep Singing';-inkscape-font-specification:'Keep Singing';fill:#ffffff;stroke-width:0.186175"
         y="287.6069"
         x="195.92119"
         id="tspan853"
         sodipodi:role="line">Amian</tspan></text>
    <path
       inkscape:export-ydpi="300"
       inkscape:export-xdpi="300"
       inkscape:transform-center-y="-4.8615576"
       inkscape:transform-center-x="5.5644455"
       d="m -22.766414,170.96268 c -4.656823,4.48127 -22.548379,-11.32957 -28.949853,-10.44135 -6.401475,0.88821 -19.312466,20.97295 -25.013447,17.92884 -5.700981,-3.04412 3.807222,-24.94581 0.984315,-30.7595 -2.822906,-5.8137 -25.914341,-11.88625 -24.780921,-18.24889 1.133426,-6.36264 24.901375,-4.0878 29.558197,-8.56907 4.656823,-4.48127 3.296523,-28.319054 9.697997,-29.207268 6.401475,-0.888214 11.582672,22.419408 17.283654,25.463528 5.700981,3.04411 27.951703,-5.61589 30.774609,0.1978 2.822906,5.81369 -17.742886,17.94375 -18.876309,24.30639 -1.133422,6.36264 13.978581,24.84824 9.321758,29.32952 z"
       inkscape:randomized="0"
       inkscape:rounded="0.21"
       inkscape:flatsided="false"
       sodipodi:arg2="1.4329251"
       sodipodi:arg1="0.80460655"
       sodipodi:r2="23.171844"
       sodipodi:r1="46.343689"
       sodipodi:cy="137.56936"
       sodipodi:cx="-54.900888"
       sodipodi:sides="5"
       id="path857"
       style="opacity:0.071741;fill:#ffffff;fill-opacity:1;stroke:none;stroke-width:2.93079;stroke-linecap:square;filter:url(#filter5780)"
       sodipodi:type="star" />
    <path
       transform="matrix(1.7128348,0,0,1.7128348,-46.12207,-112.45621)"
       sodipodi:type="star"
       style="opacity:0.10803499;fill:#ffffff;fill-opacity:1;stroke:none;stroke-width:2.93079;stroke-linecap:square;filter:url(#filter5696)"
       id="path2695"
       sodipodi:sides="5"
       sodipodi:cx="177.70905"
       sodipodi:cy="121.02621"
       sodipodi:r1="46.343689"
       sodipodi:r2="23.171844"
       sodipodi:arg1="0.80460655"
       sodipodi:arg2="1.4329251"
       inkscape:flatsided="false"
       inkscape:rounded="0.21"
       inkscape:randomized="0"
       d="m 209.84352,154.41952 c -4.65682,4.48127 -22.54838,-11.32956 -28.94986,-10.44135 -6.40147,0.88821 -19.31246,20.97295 -25.01344,17.92884 -5.70098,-3.04412 3.80722,-24.94581 0.98431,-30.7595 -2.8229,-5.81369 -25.91434,-11.88625 -24.78091,-18.24889 1.13342,-6.36264 24.90137,-4.0878 29.55819,-8.56907 4.65682,-4.481271 3.29652,-28.319054 9.698,-29.207268 6.40147,-0.888214 11.58267,22.419413 17.28365,25.463528 5.70098,3.04411 27.9517,-5.615893 30.77461,0.1978 2.82291,5.81369 -17.74289,17.94375 -18.87631,24.30639 -1.13342,6.36264 13.97858,24.84824 9.32176,29.32952 z"
       inkscape:transform-center-x="9.5309706"
       inkscape:transform-center-y="-8.3270416" />
    <path
       inkscape:export-ydpi="300"
       inkscape:export-xdpi="300"
       d="m 209.84352,154.41952 c -4.65682,4.48127 -22.54838,-11.32956 -28.94986,-10.44135 -6.40147,0.88821 -19.31246,20.97295 -25.01344,17.92884 -5.70098,-3.04412 3.80722,-24.94581 0.98431,-30.7595 -2.8229,-5.81369 -25.91434,-11.88625 -24.78091,-18.24889 1.13342,-6.36264 24.90137,-4.0878 29.55819,-8.56907 4.65682,-4.481271 3.29652,-28.319054 9.698,-29.207268 6.40147,-0.888214 11.58267,22.419413 17.28365,25.463528 5.70098,3.04411 27.9517,-5.615893 30.77461,0.1978 2.82291,5.81369 -17.74289,17.94375 -18.87631,24.30639 -1.13342,6.36264 13.97858,24.84824 9.32176,29.32952 z"
       transform="matrix(1.43581,0,0,1.2602582,-180.6001,50.251566)"
       inkscape:transform-center-y="-6.1268077"
       inkscape:transform-center-x="7.9894867"
       style="opacity:0.14775485;fill:#a4a4a4;fill-opacity:1;stroke:none;stroke-width:2.93079;stroke-linecap:square;filter:url(#filter5524)"
       id="path2697" />
  </g>
</svg>
